<svg width="74" height="72" viewBox="0 0 74 72" fill="none" xmlns="http://www.w3.org/2000/svg">
<ellipse cx="37" cy="35.8389" rx="37" ry="35.8389" fill="#FDFDFD"/>
<g clip-path="url(#clip0_115_130)">
<path d="M22.9723 16.718C23.7637 16.0266 24.6051 15.3813 25.4913 14.786C26.6623 13.9974 27.7142 13.291 29.3135 12.6963C30.5466 12.2351 31.8503 11.9378 33.1822 11.8141C34.1907 11.7231 35.2077 11.7347 36.2132 11.8486C35.5465 12.7394 35.1111 13.7492 34.9379 14.8057C34.4073 18.2886 37.172 21.1357 39.3242 23.3486C41.4318 25.5348 44.0065 27.3335 46.9016 28.6419C51.3158 30.5756 55.3354 30.7924 55.3559 30.7234C55.3689 30.6791 53.7697 30.431 51.7273 29.488C50.1225 28.747 48.4543 27.6808 48.6163 27.3703C48.7056 27.206 49.2977 27.3703 50.4781 27.487C51.6352 27.5843 52.799 27.6046 53.9596 27.5478C56.7522 27.4114 57.1041 26.562 58.614 26.7263C59.5988 26.8315 60.9282 27.3473 62.3692 29.1906C60.4564 30.091 58.4185 30.767 56.3072 31.2015C46.2425 33.2666 37.7845 29.0428 35.5299 27.9158C28.4273 24.4 24.6404 19.34 22.9723 16.718Z" fill="#CE6728"/>
<path d="M25.3232 58.0014C24.2526 57.7332 23.2028 57.4039 22.1805 57.0157C20.8289 56.5014 19.6169 56.0398 18.2429 55.1017C17.182 54.3785 16.2473 53.5217 15.4689 52.5586C14.8824 51.8266 14.3926 51.0378 14.0092 50.2076C15.2139 50.2811 16.4221 50.1178 17.5466 49.7296C21.2329 48.4153 22.6683 44.8864 23.7817 42.1445C24.8937 39.4423 25.394 36.5739 25.2543 33.7018C24.9806 29.3499 23.2064 26.1446 23.1356 26.1676C23.0649 26.1906 23.629 27.5312 23.7091 29.57C23.7705 31.1701 23.5378 32.9839 23.1598 33.0085C22.9513 33.0217 22.821 32.4844 22.3574 31.5184C21.8848 30.577 21.3328 29.6681 20.706 28.7995C19.1999 26.7229 18.1964 26.8609 17.6099 25.614C17.2376 24.8041 17.0812 23.5259 18.1908 21.5068C20.02 22.5374 21.6892 23.7739 23.1561 25.1852C30.1452 31.9209 30.1619 40.5098 30.1675 42.7983C30.1899 50.0171 27.0789 55.4254 25.3232 58.0014Z" fill="#CE6728"/>
<path d="M64.7271 34.9685C65.0099 35.9206 65.2213 36.8882 65.3601 37.8648C65.5463 39.1561 65.712 40.316 65.4941 41.8389C65.3285 43.0143 64.9678 44.1618 64.4236 45.2446C64.0081 46.0607 63.4884 46.8324 62.8746 47.5446C62.3367 46.585 61.5633 45.7432 60.6107 45.0803C57.468 42.9331 53.2958 43.6296 50.0601 44.1718C46.8655 44.6988 43.8199 45.7762 41.0975 47.3425C37.0016 49.7575 34.7675 52.7295 34.8327 52.7787C34.8978 52.828 35.9106 51.7109 37.8562 50.6167C39.3847 49.7575 41.2688 49.0149 41.4848 49.2909C41.6039 49.4421 41.1459 49.815 40.4403 50.6594C39.7657 51.4976 39.1639 52.3796 38.64 53.2979C37.3814 55.4993 38.0237 56.1959 37.1059 57.2753C36.5101 57.9768 35.3409 58.7374 32.8089 58.9181C32.8845 57.0022 33.2418 55.103 33.872 53.2683C36.8825 44.525 45.2455 40.1533 47.4722 38.9869C54.4818 35.3085 61.3275 34.9373 64.7271 34.9685Z" fill="#CE6728"/>
<path d="M13.7298 48.9246C13.9713 48.1103 14.271 47.3102 14.6272 46.5293C15.7051 44.1587 16.4275 43.8925 16.9395 42.409C17.5557 40.6232 17.1834 39.0494 16.7887 37.3753C16.4476 35.9333 15.8667 34.5437 15.0647 33.2517C16.2841 33.6641 18.7733 34.6909 20.5699 36.9826C21.4254 38.0058 21.9962 39.1921 22.2362 40.4458C22.43 41.5344 22.3608 42.6468 22.0333 43.7102C21.6578 44.9515 20.9677 46.1014 20.0151 47.0731C19.2295 47.8683 18.1738 48.9345 16.4256 49.1957C15.5158 49.3218 14.5842 49.2281 13.7298 48.9246Z" fill="#CE6728"/>
<path d="M13.8758 43.7028C15.6228 42.775 16.2228 40.8262 15.216 39.3499C14.2092 37.8736 11.9767 37.4289 10.2297 38.3567C8.48273 39.2844 7.8827 41.2333 8.88953 42.7096C9.89636 44.1859 12.1288 44.6305 13.8758 43.7028Z" fill="#CE6728"/>
<path d="M61.7635 48.4072C60.8462 48.6363 59.9135 48.8141 58.9708 48.9394C56.1149 49.3189 55.4893 48.9017 53.7858 49.268C51.7379 49.7034 50.3881 50.786 48.9601 51.936C47.7281 52.9288 46.6685 54.0763 45.8156 55.3417C45.5996 54.2032 45.3371 51.7849 46.6571 49.2532C47.2196 48.0832 48.0856 47.0461 49.1854 46.2254C50.1474 45.5265 51.266 45.0148 52.4677 44.7239C53.868 44.3825 55.338 44.3264 56.7665 44.5596C57.9431 44.7567 59.5163 45.0196 60.6576 46.2205C61.2408 46.8493 61.6226 47.6043 61.7635 48.4072Z" fill="#CE6728"/>
<path d="M58.0743 55.4019C59.0954 53.9333 58.5142 51.9799 56.7763 51.039C55.0383 50.0981 52.8017 50.526 51.7806 51.9946C50.7595 53.4632 51.3406 55.4166 53.0785 56.3575C54.8165 57.2984 57.0531 56.8705 58.0743 55.4019Z" fill="#CE6728"/>
<path d="M37.6088 12.2723C38.2913 12.8588 38.9306 13.4833 39.5227 14.1419C41.3212 16.1413 41.2281 16.828 42.4345 17.9534C43.8867 19.3071 45.6181 19.7966 47.4613 20.3174C49.0474 20.7651 50.7 21.0026 52.3652 21.0222C51.3598 21.7582 49.1238 23.1678 45.9849 23.4224C44.5574 23.5767 43.1087 23.4315 41.7568 22.9986C40.5912 22.613 39.5311 22.0145 38.6458 21.2424C37.6091 20.3406 36.8178 19.243 36.3316 18.0322C35.9369 17.0334 35.4007 15.6961 36.0133 14.2208C36.3351 13.4557 36.8866 12.7822 37.6088 12.2723Z" fill="#CE6728"/>
<path d="M46.2032 18.1308C48.1527 18.1308 49.7331 16.6693 49.7331 14.8664C49.7331 13.0636 48.1527 11.6021 46.2032 11.6021C44.2536 11.6021 42.6732 13.0636 42.6732 14.8664C42.6732 16.6693 44.2536 18.1308 46.2032 18.1308Z" fill="#CE6728"/>
</g>
<defs>
<clipPath id="clip0_115_130">
<rect width="57.2903" height="47.3999" fill="white" transform="translate(8.35519 11.561)"/>
</clipPath>
</defs>
</svg>
