<svg width="74" height="74" viewBox="0 0 74 74" fill="none" xmlns="http://www.w3.org/2000/svg">
<path d="M74 37C74 57.4345 57.4345 74 37 74C16.5655 74 0 57.4345 0 37C0 16.5655 16.5655 0 37 0C57.4345 0 74 16.5655 74 37Z" fill="#FDFDFD"/>
<path d="M22.9723 17.2595C23.7637 16.5457 24.6051 15.8794 25.4913 15.2649C26.6623 14.4508 27.7142 13.7215 29.3135 13.1075C30.5466 12.6314 31.8503 12.3245 33.1822 12.1967C34.1907 12.1028 35.2077 12.1147 36.2132 12.2323C35.5465 13.152 35.1111 14.1945 34.9379 15.2853C34.4073 18.881 37.172 21.8203 39.3242 24.1049C41.4317 26.362 44.0065 28.2189 46.9016 29.5697C51.3158 31.566 55.3354 31.7899 55.3559 31.7186C55.3689 31.6728 53.7696 31.4167 51.7273 30.4432C50.1224 29.6782 48.4543 28.5775 48.6163 28.2569C48.7056 28.0873 49.2977 28.2569 50.478 28.3773C51.6352 28.4778 52.799 28.4988 53.9595 28.4401C56.7522 28.2993 57.1041 27.4225 58.614 27.5921C59.5988 27.7006 60.9281 28.2332 62.3692 30.1362C60.4564 31.0658 58.4185 31.7637 56.3072 32.2122C46.2425 34.3442 37.7845 29.9835 35.5299 28.82C28.4273 25.1904 24.6404 19.9665 22.9723 17.2595Z" fill="#CE6728"/>
<path d="M25.3232 59.8804C24.2525 59.6036 23.2028 59.2636 22.1805 58.8628C20.8289 58.3319 19.6169 57.8553 18.2429 56.8868C17.182 56.1402 16.2473 55.2556 15.4688 54.2613C14.8823 53.5056 14.3926 52.6913 14.0092 51.8342C15.2139 51.91 16.422 51.7414 17.5466 51.3406C21.2329 49.9837 22.6683 46.3406 23.7816 43.5098C24.8937 40.7201 25.394 37.7588 25.2543 34.7936C24.9806 30.3007 23.2064 26.9916 23.1356 27.0154C23.0649 27.0391 23.629 28.4231 23.709 30.5279C23.7705 32.1799 23.5377 34.0524 23.1598 34.0779C22.9513 34.0914 22.821 33.5368 22.3574 32.5395C21.8848 31.5675 21.3328 30.6292 20.706 29.7325C19.1998 27.5886 18.1963 27.7311 17.6099 26.4438C17.2375 25.6076 17.0811 24.288 18.1908 22.2036C20.02 23.2675 21.6891 24.5441 23.1561 26.0011C30.1452 32.955 30.1619 41.8222 30.1675 44.1848C30.1898 51.6374 27.0788 57.221 25.3232 59.8804Z" fill="#CE6728"/>
<path d="M64.7271 36.1013C65.0098 37.0843 65.2213 38.0832 65.3601 39.0915C65.5462 40.4246 65.7119 41.622 65.4941 43.1943C65.3285 44.4078 64.9678 45.5925 64.4236 46.7103C64.0081 47.5529 63.4884 48.3496 62.8746 49.0848C62.3367 48.0942 61.5633 47.2251 60.6107 46.5407C57.468 44.3239 53.2958 45.043 50.0601 45.6028C46.8655 46.1468 43.8199 47.2591 41.0975 48.8762C37.0016 51.3694 34.7675 54.4377 34.8326 54.4885C34.8978 54.5394 35.9106 53.3861 37.8562 52.2565C39.3847 51.3694 41.2688 50.6028 41.4847 50.8878C41.6039 51.0438 41.1459 51.4288 40.4403 52.3006C39.7657 53.1659 39.1639 54.0765 38.64 55.0245C37.3814 57.2973 38.0237 58.0164 37.1059 59.1307C36.5101 59.855 35.3409 60.6403 32.8089 60.8268C32.8844 58.8488 33.2418 56.8881 33.872 54.994C36.8825 45.9674 45.2455 41.4541 47.4722 40.2499C54.4817 36.4524 61.3275 36.069 64.7271 36.1013Z" fill="#CE6728"/>
<path d="M13.7298 50.5096C13.9713 49.6689 14.271 48.8429 14.6272 48.0367C15.7051 45.5892 16.4275 45.3145 16.9395 43.7829C17.5557 41.9393 17.1834 40.3144 16.7887 38.5861C16.4476 37.0973 15.8667 35.6628 15.0647 34.3289C16.2841 34.7546 18.7733 35.8147 20.5699 38.1807C21.4254 39.237 21.9962 40.4618 22.2362 41.7561C22.4299 42.8799 22.3608 44.0284 22.0333 45.1262C21.6578 46.4078 20.9677 47.595 20.0151 48.5981C19.2294 49.419 18.1738 50.5198 16.4256 50.7894C15.5158 50.9197 14.5842 50.823 13.7298 50.5096Z" fill="#CE6728"/>
<path d="M13.8758 45.1186C15.6228 44.1608 16.2228 42.1488 15.216 40.6246C14.2091 39.1005 11.9767 38.6414 10.2297 39.5992C8.48269 40.5571 7.88266 42.569 8.88949 44.0932C9.89633 45.6173 12.1288 46.0764 13.8758 45.1186Z" fill="#CE6728"/>
<path d="M61.7635 49.9753C60.8462 50.2119 59.9135 50.3955 58.9708 50.5249C56.1148 50.9167 55.4893 50.4859 53.7858 50.8641C51.7378 51.3135 50.3881 52.4313 48.9601 53.6185C47.728 54.6435 46.6685 55.8282 45.8156 57.1345C45.5996 55.9591 45.3371 53.4625 46.6571 50.8488C47.2196 49.6409 48.0856 48.5702 49.1854 47.7229C50.1474 47.0014 51.2659 46.4731 52.4676 46.1727C53.868 45.8203 55.3379 45.7623 56.7665 46.0031C57.9431 46.2066 59.5163 46.478 60.6576 47.7178C61.2407 48.367 61.6226 49.1464 61.7635 49.9753Z" fill="#CE6728"/>
<path d="M58.0742 57.1967C59.0953 55.6805 58.5142 53.6639 56.7763 52.6925C55.0383 51.7211 52.8016 52.1628 51.7805 53.679C50.7594 55.1953 51.3406 57.2119 53.0785 58.1832C54.8165 59.1546 57.0531 58.7129 58.0742 57.1967Z" fill="#CE6728"/>
<path d="M37.6088 12.6698C38.2913 13.2753 38.9306 13.92 39.5227 14.6C41.3211 16.6641 41.228 17.3731 42.4345 18.5349C43.8866 19.9325 45.6181 20.4379 47.4612 20.9756C49.0474 21.4377 50.7 21.6829 52.3651 21.7032C51.3598 22.463 49.1238 23.9183 45.9849 24.1812C44.5573 24.3405 43.1087 24.1905 41.7568 23.7436C40.5912 23.3455 39.5311 22.7276 38.6458 21.9305C37.6091 20.9995 36.8178 19.8663 36.3316 18.6163C35.9369 17.5851 35.4007 16.2045 36.0132 14.6814C36.3351 13.8915 36.8866 13.1962 37.6088 12.6698Z" fill="#CE6728"/>
<path d="M46.2031 18.7181C48.1527 18.7181 49.733 17.2092 49.733 15.348C49.733 13.4867 48.1527 11.9779 46.2031 11.9779C44.2536 11.9779 42.6732 13.4867 42.6732 15.348C42.6732 17.2092 44.2536 18.7181 46.2031 18.7181Z" fill="#CE6728"/>
</svg>
