<svg width="50" height="43" viewBox="0 0 50 43" fill="none" xmlns="http://www.w3.org/2000/svg">
<path d="M13.3406 5.46066C14.0069 4.86261 14.7153 4.30439 15.4614 3.78951C16.4473 3.10741 17.3329 2.49636 18.6794 1.98194C19.7176 1.58306 20.8152 1.32589 21.9366 1.21884C22.7857 1.14017 23.6419 1.15018 24.4885 1.24868C23.9272 2.01924 23.5606 2.89267 23.4147 3.80656C22.968 6.81918 25.2957 9.28185 27.1077 11.196C28.8821 13.087 31.0499 14.6428 33.4874 15.7746C37.2039 17.4472 40.588 17.6348 40.6053 17.5751C40.6163 17.5367 39.2698 17.3221 37.5503 16.5064C36.1991 15.8656 34.7946 14.9433 34.931 14.6747C35.0063 14.5326 35.5047 14.6747 36.4985 14.7756C37.4727 14.8598 38.4525 14.8773 39.4297 14.8282C41.7809 14.7102 42.0772 13.9756 43.3484 14.1177C44.1776 14.2086 45.2968 14.6548 46.51 16.2492C44.8996 17.0281 43.1838 17.6128 41.4063 17.9886C32.9325 19.7748 25.8114 16.1213 23.9132 15.1465C17.9333 12.1055 14.745 7.72865 13.3406 5.46066Z" fill="#CE6728"/>
<path d="M15.3203 41.1701C14.4189 40.9381 13.535 40.6533 12.6744 40.3175C11.5364 39.8727 10.516 39.4734 9.35916 38.662C8.46595 38.0364 7.67902 37.2952 7.02362 36.4622C6.52981 35.829 6.1175 35.1468 5.79471 34.4287C6.80897 34.4922 7.82614 34.351 8.77292 34.0151C11.8765 32.8783 13.0851 29.8259 14.0224 27.4542C14.9587 25.1169 15.3799 22.6358 15.2623 20.1514C15.0319 16.3871 13.5381 13.6146 13.4785 13.6345C13.4189 13.6544 13.8939 14.814 13.9613 16.5775C14.013 17.9616 13.8171 19.5304 13.4989 19.5517C13.3233 19.5631 13.2136 19.0984 12.8233 18.2629C12.4254 17.4485 11.9606 16.6623 11.4329 15.911C10.1648 14.1148 9.31997 14.2342 8.82622 13.1556C8.51272 12.455 8.38105 11.3495 9.31527 9.603C10.8553 10.4944 12.2607 11.564 13.4957 12.7847C19.3801 18.611 19.3942 26.0402 19.3989 28.0197C19.4177 34.2638 16.7984 38.9419 15.3203 41.1701Z" fill="#CE6728"/>
<path d="M48.496 21.247C48.7341 22.0706 48.9121 22.9076 49.0289 23.7524C49.1857 24.8693 49.3252 25.8726 49.1418 27.1899C49.0023 28.2066 48.6987 29.1991 48.2405 30.1357C47.8907 30.8417 47.4531 31.5091 46.9363 32.1252C46.4835 31.2951 45.8323 30.567 45.0303 29.9936C42.3844 28.1363 38.8717 28.7388 36.1474 29.2077C33.4578 29.6636 30.8936 30.5955 28.6015 31.9504C25.1531 34.0393 23.2721 36.61 23.327 36.6526C23.3818 36.6952 24.2345 35.7289 25.8726 34.7825C27.1595 34.0393 28.7457 33.397 28.9276 33.6357C29.0279 33.7665 28.6423 34.089 28.0482 34.8195C27.4803 35.5445 26.9736 36.3074 26.5325 37.1017C25.4728 39.0059 26.0136 39.6084 25.2409 40.542C24.7393 41.1488 23.7549 41.8067 21.6231 41.963C21.6867 40.3058 21.9876 38.663 22.5182 37.0761C25.0528 29.5133 32.0939 25.7319 33.9686 24.7229C39.8701 21.5412 45.6338 21.22 48.496 21.247Z" fill="#CE6728"/>
<path d="M5.55959 33.3188C5.76292 32.6144 6.01526 31.9224 6.31512 31.2469C7.22269 29.1964 7.83087 28.9662 8.26193 27.683C8.78076 26.1383 8.46726 24.7769 8.13496 23.3289C7.84783 22.0815 7.3587 20.8796 6.68347 19.7621C7.71017 20.1187 9.80589 21.0069 11.3185 22.9893C12.0388 23.8742 12.5193 24.9004 12.7214 25.9848C12.8845 26.9264 12.8263 27.8887 12.5505 28.8084C12.2344 29.8822 11.6534 30.8768 10.8514 31.7173C10.1899 32.4051 9.30116 33.3274 7.8293 33.5533C7.06326 33.6624 6.27892 33.5814 5.55959 33.3188Z" fill="#CE6728"/>
<path d="M5.68235 28.8021C7.15321 27.9996 7.6584 26.3139 6.81071 25.0369C5.96303 23.7599 4.08348 23.3753 2.61262 24.1778C1.14177 24.9803 0.636582 26.666 1.48426 27.943C2.33195 29.2199 4.2115 29.6046 5.68235 28.8021Z" fill="#CE6728"/>
<path d="M46.0006 32.8712C45.2283 33.0694 44.443 33.2232 43.6493 33.3316C41.2448 33.6599 40.7182 33.2989 39.2839 33.6158C37.5597 33.9924 36.4233 34.9289 35.221 35.9236C34.1837 36.7823 33.2916 37.7749 32.5735 38.8694C32.3917 37.8846 32.1707 35.7929 33.282 33.603C33.7556 32.591 34.4848 31.6939 35.4107 30.9841C36.2206 30.3795 37.1624 29.9369 38.1741 29.6852C39.3531 29.39 40.5907 29.3414 41.7934 29.5431C42.7841 29.7136 44.1086 29.941 45.0695 30.9798C45.5605 31.5236 45.8819 32.1767 46.0006 32.8712Z" fill="#CE6728"/>
<path d="M42.8943 38.9216C43.754 37.6512 43.2648 35.9616 41.8015 35.1478C40.3383 34.3339 38.4552 34.704 37.5955 35.9743C36.7358 37.2447 37.2251 38.9343 38.6883 39.7481C40.1515 40.562 42.0346 40.1919 42.8943 38.9216Z" fill="#CE6728"/>
<path d="M25.6641 1.61531C26.2387 2.12262 26.777 2.66278 27.2755 3.23246C28.7896 4.96187 28.7113 5.55587 29.727 6.52928C30.9496 7.70022 32.4074 8.1237 33.9592 8.57417C35.2946 8.9614 36.686 9.16684 38.0879 9.1838C37.2415 9.82043 35.3589 11.0397 32.7162 11.2599C31.5143 11.3934 30.2947 11.2678 29.1564 10.8933C28.1751 10.5598 27.2825 10.0421 26.5372 9.37422C25.6643 8.59421 24.9981 7.64479 24.5888 6.5975C24.2565 5.7335 23.8051 4.57677 24.3208 3.30067C24.5917 2.63887 25.0561 2.05631 25.6641 1.61531Z" fill="#CE6728"/>
<path d="M32.8996 6.68276C34.5409 6.68276 35.8715 5.41858 35.8715 3.85914C35.8715 2.2997 34.5409 1.03552 32.8996 1.03552C31.2582 1.03552 29.9276 2.2997 29.9276 3.85914C29.9276 5.41858 31.2582 6.68276 32.8996 6.68276Z" fill="#CE6728"/>
<path d="M13.3406 5.46066C14.0069 4.86261 14.7153 4.30439 15.4614 3.78951C16.4473 3.10741 17.3329 2.49636 18.6794 1.98194C19.7176 1.58306 20.8152 1.32589 21.9366 1.21884C22.7857 1.14017 23.6419 1.15018 24.4885 1.24868C23.9272 2.01924 23.5606 2.89267 23.4147 3.80656C22.968 6.81918 25.2957 9.28185 27.1077 11.196C28.8821 13.087 31.0499 14.6428 33.4874 15.7746C37.2039 17.4472 40.588 17.6348 40.6053 17.5751C40.6163 17.5367 39.2698 17.3221 37.5503 16.5064C36.1991 15.8656 34.7946 14.9433 34.931 14.6747C35.0063 14.5326 35.5047 14.6747 36.4985 14.7756C37.4727 14.8598 38.4525 14.8773 39.4297 14.8282C41.7809 14.7102 42.0772 13.9756 43.3484 14.1177C44.1776 14.2086 45.2968 14.6548 46.51 16.2492C44.8996 17.0281 43.1838 17.6128 41.4063 17.9886C32.9325 19.7748 25.8114 16.1213 23.9132 15.1465C17.9333 12.1055 14.745 7.72865 13.3406 5.46066Z" stroke="#231F20" stroke-width="0.5" stroke-miterlimit="10"/>
<path d="M15.3203 41.1701C14.4189 40.9381 13.535 40.6533 12.6744 40.3175C11.5364 39.8727 10.516 39.4734 9.35916 38.662C8.46595 38.0364 7.67902 37.2952 7.02362 36.4622C6.52981 35.829 6.1175 35.1468 5.79471 34.4287C6.80897 34.4922 7.82614 34.351 8.77292 34.0151C11.8765 32.8783 13.0851 29.8259 14.0224 27.4542C14.9587 25.1169 15.3799 22.6358 15.2623 20.1514C15.0319 16.3871 13.5381 13.6146 13.4785 13.6345C13.4189 13.6544 13.8939 14.814 13.9613 16.5775C14.013 17.9616 13.8171 19.5304 13.4989 19.5517C13.3233 19.5631 13.2136 19.0984 12.8233 18.2629C12.4254 17.4485 11.9606 16.6623 11.4329 15.911C10.1648 14.1148 9.31997 14.2342 8.82622 13.1556C8.51272 12.455 8.38105 11.3495 9.31527 9.603C10.8553 10.4944 12.2607 11.564 13.4957 12.7847C19.3801 18.611 19.3942 26.0402 19.3989 28.0197C19.4177 34.2638 16.7984 38.9419 15.3203 41.1701Z" stroke="#231F20" stroke-width="0.5" stroke-miterlimit="10"/>
<path d="M48.496 21.247C48.7341 22.0706 48.9121 22.9076 49.0289 23.7524C49.1857 24.8693 49.3252 25.8726 49.1418 27.1899C49.0023 28.2066 48.6987 29.1991 48.2405 30.1357C47.8907 30.8417 47.4531 31.5091 46.9363 32.1252C46.4835 31.2951 45.8323 30.567 45.0303 29.9936C42.3844 28.1363 38.8717 28.7388 36.1474 29.2077C33.4578 29.6636 30.8936 30.5955 28.6015 31.9504C25.1531 34.0393 23.2721 36.61 23.327 36.6526C23.3818 36.6952 24.2345 35.7289 25.8726 34.7825C27.1595 34.0393 28.7457 33.397 28.9276 33.6357C29.0279 33.7665 28.6423 34.089 28.0482 34.8195C27.4803 35.5445 26.9736 36.3074 26.5325 37.1017C25.4728 39.0059 26.0136 39.6084 25.2409 40.542C24.7393 41.1488 23.7549 41.8067 21.6231 41.963C21.6867 40.3058 21.9876 38.663 22.5182 37.0761C25.0528 29.5133 32.0939 25.7319 33.9686 24.7229C39.8701 21.5412 45.6338 21.22 48.496 21.247Z" stroke="#231F20" stroke-width="0.5" stroke-miterlimit="10"/>
<path d="M5.55959 33.3188C5.76292 32.6144 6.01526 31.9224 6.31512 31.2469C7.22269 29.1964 7.83087 28.9662 8.26193 27.683C8.78076 26.1383 8.46726 24.7769 8.13496 23.3289C7.84783 22.0815 7.3587 20.8796 6.68347 19.7621C7.71017 20.1187 9.80589 21.0069 11.3185 22.9893C12.0388 23.8742 12.5193 24.9004 12.7214 25.9848C12.8845 26.9264 12.8263 27.8887 12.5505 28.8084C12.2344 29.8822 11.6534 30.8768 10.8514 31.7173C10.1899 32.4051 9.30116 33.3274 7.8293 33.5533C7.06326 33.6624 6.27892 33.5814 5.55959 33.3188Z" stroke="#231F20" stroke-width="0.5" stroke-miterlimit="10"/>
<path d="M5.68235 28.8021C7.15321 27.9996 7.6584 26.3139 6.81071 25.0369C5.96303 23.7599 4.08348 23.3753 2.61262 24.1778C1.14177 24.9803 0.636582 26.666 1.48426 27.943C2.33195 29.2199 4.2115 29.6046 5.68235 28.8021Z" stroke="#231F20" stroke-width="0.5" stroke-miterlimit="10"/>
<path d="M46.0006 32.8712C45.2283 33.0694 44.443 33.2232 43.6493 33.3316C41.2448 33.6599 40.7182 33.2989 39.2839 33.6158C37.5597 33.9924 36.4233 34.9289 35.221 35.9236C34.1837 36.7823 33.2916 37.7749 32.5735 38.8694C32.3917 37.8846 32.1707 35.7929 33.282 33.603C33.7556 32.591 34.4848 31.6939 35.4107 30.9841C36.2206 30.3795 37.1624 29.9369 38.1741 29.6852C39.3531 29.39 40.5907 29.3414 41.7934 29.5431C42.7841 29.7136 44.1086 29.941 45.0695 30.9798C45.5605 31.5236 45.8819 32.1767 46.0006 32.8712Z" stroke="#231F20" stroke-width="0.5" stroke-miterlimit="10"/>
<path d="M42.8943 38.9216C43.754 37.6512 43.2648 35.9616 41.8015 35.1478C40.3383 34.3339 38.4552 34.704 37.5955 35.9743C36.7358 37.2447 37.2251 38.9343 38.6883 39.7481C40.1515 40.562 42.0346 40.1919 42.8943 38.9216Z" stroke="#231F20" stroke-width="0.5" stroke-miterlimit="10"/>
<path d="M25.6641 1.61531C26.2387 2.12262 26.777 2.66278 27.2755 3.23246C28.7896 4.96187 28.7113 5.55587 29.727 6.52928C30.9496 7.70022 32.4074 8.1237 33.9592 8.57417C35.2946 8.9614 36.686 9.16684 38.0879 9.1838C37.2415 9.82043 35.3589 11.0397 32.7162 11.2599C31.5143 11.3934 30.2947 11.2678 29.1564 10.8933C28.1751 10.5598 27.2825 10.0421 26.5372 9.37422C25.6643 8.59421 24.9981 7.64479 24.5888 6.5975C24.2565 5.7335 23.8051 4.57677 24.3208 3.30067C24.5917 2.63887 25.0561 2.05631 25.6641 1.61531Z" stroke="#231F20" stroke-width="0.5" stroke-miterlimit="10"/>
<path d="M32.8996 6.68276C34.5409 6.68276 35.8715 5.41858 35.8715 3.85914C35.8715 2.2997 34.5409 1.03552 32.8996 1.03552C31.2582 1.03552 29.9276 2.2997 29.9276 3.85914C29.9276 5.41858 31.2582 6.68276 32.8996 6.68276Z" stroke="#231F20" stroke-width="0.5" stroke-miterlimit="10"/>
</svg>
